<?xml version="1.0" encoding="utf-8"?>
<!-- Generator: Adobe Illustrator 25.3.1, SVG Export Plug-In . SVG Version: 6.00 Build 0)  -->
<svg version="1.1" id="Layer_1" xmlns="http://www.w3.org/2000/svg" xmlns:xlink="http://www.w3.org/1999/xlink" x="0px" y="0px"
	 viewBox="0 0 508.4 207.7" style="enable-background:new 0 0 508.4 207.7;" xml:space="preserve">
<style type="text/css">
	.st0{fill:#538ECB;}
	.st1{fill:url(#SVGID_1_);}
	.st2{fill:#528ECB;}
</style>
<path class="st0" d="M299.6,143.6c0,34.1-19.7,61.7-57.3,61.7c-37.6,0-68-27.6-68-61.7c0-9.4,2.3-18.3,6.5-26.3l0.4-0.7L242.3,0
	l50.4,116.6l0.4,0.7C297.2,125.3,299.6,134.2,299.6,143.6z"/>
<linearGradient id="SVGID_1_" gradientUnits="userSpaceOnUse" x1="216.4966" y1="93.8251" x2="216.4966" y2="196.2852">
	<stop  offset="0" style="stop-color:#FFFFFF"/>
	<stop  offset="1" style="stop-color:#528ECB"/>
</linearGradient>
<path class="st1" d="M243.6,174.4c5.6,13.2,9.6,21.8-7.8,21.8c-28.3,0-51.2-22.9-51.2-51.2c0-8.6,2.1-16.7,5.8-23.8
	c3.2-6.1,7.7-11.5,13-15.9c1-0.9,2.1-1.7,3.2-2.4c1.9-1.3,3.9-2.5,6-3.6c7-3.6,14.9-5.6,23.2-5.6c21.6,0,10.2,13.4,3.6,32.4
	c-0.8,2.4-1.6,4.8-2.2,7.4c-0.4,1.5-0.7,3.1-0.9,4.7c-0.3,2.2-0.5,4.4-0.5,6.7C235.8,156,240,166.1,243.6,174.4z"/>
<g>
	<g>
		<path class="st2" d="M72.4,150.8c0,13.1-2.3,24.2-6.8,33.4c-5.8,11.8-14.6,17.7-26.4,17.7c-3.8,0-9.7-1.4-17.9-4.1
			c0.1,1,0.2,2,0.2,2.8c0,4.8-2.7,7.2-8.1,7.2c-3.9,0-7.1-1.5-9.6-4.4c-1.2-1.3-2.1-5.8-2.8-13.5C0.4,183.4,0,178.4,0,174.8v-0.9
			L3.3,50.7c2.3-3.6,5.1-5.2,8.3-4.6c0.7-0.3,1.5-0.4,2.2-0.4c2.6,0,5.1,1.6,7.3,4.7c2.3,3.1,3.4,6.1,3.4,8.8
			c0,6.3-0.6,14.6-1.7,25.1c-1.5,12.1-2.3,20.4-2.4,24.9c4.2-5.1,9.7-7.6,16.4-7.6c8,0,15.2,2.9,21.6,8.6
			c6.4,5.7,10.5,12.7,12.4,20.8C71.8,135.9,72.4,142.5,72.4,150.8z M52.1,149.3c0-19.8-4.1-29.7-12.4-29.7c-6.9,0-12.2,5-15.8,15.1
			c-2.7,7.6-4.1,15.6-4.1,24.2c0,18.3,5.5,27.5,16.5,27.5C46.9,186.3,52.1,174,52.1,149.3z"/>
		<path class="st2" d="M158.8,181.1c0,7.3-4.9,12.9-14.8,17c-7.7,3.2-15.8,4.8-24.2,4.8c-22.4,0-33.6-12.7-33.6-38.2
			c0-10.5,2.5-22.1,7.6-34.9c6.2-15.7,13.8-23.6,22.7-23.6c8,0,16.6,3.6,25.8,10.7c9.2,7.1,13.9,14.5,13.9,22.2
			c0,9.6-4.3,17.2-12.9,22.9c-7.6,5.1-16.6,7.6-27,7.6c-2,0-5.3-1.2-9.8-3.7c0.6,13.8,4.7,20.7,12.2,20.7c6.4,0,12.7-1.8,18.9-5.5
			c6.2-3.6,10.1-5.5,11.9-5.5C155.7,175.9,158.8,177.6,158.8,181.1z M135,139.9c0-3.6-1.1-7.1-3.2-10.4c-2.1-3.3-4.9-4.9-8.4-4.9
			c-4.8,0-8.5,2.1-11.1,6.3c-2.2,3.6-3.3,7.9-3.3,12.9c0,2.8,0.9,5,2.8,6.8c1.9,1.7,4.3,2.6,7.2,2.6
			C129.7,153.2,135,148.8,135,139.9z"/>
		<path class="st2" d="M387.4,181.1c0,7.3-4.9,12.9-14.8,17c-7.7,3.2-15.8,4.8-24.2,4.8c-22.4,0-33.6-12.7-33.6-38.2
			c0-10.5,2.5-22.1,7.6-34.9c6.2-15.7,13.8-23.6,22.7-23.6c8,0,16.6,3.6,25.8,10.7c9.2,7.1,13.9,14.5,13.9,22.2
			c0,9.6-4.3,17.2-12.9,22.9c-7.6,5.1-16.6,7.6-27,7.6c-2,0-5.3-1.2-9.8-3.7c0.6,13.8,4.7,20.7,12.2,20.7c6.4,0,12.7-1.8,18.9-5.5
			c6.2-3.6,10.1-5.5,11.9-5.5C384.3,175.9,387.4,177.6,387.4,181.1z M363.6,139.9c0-3.6-1.1-7.1-3.2-10.4c-2.1-3.3-4.9-4.9-8.4-4.9
			c-4.8,0-8.5,2.1-11.1,6.3c-2.2,3.6-3.3,7.9-3.3,12.9c0,2.8,0.9,5,2.8,6.8c1.9,1.7,4.3,2.6,7.2,2.6
			C358.3,153.2,363.6,148.8,363.6,139.9z"/>
		<path class="st2" d="M508.4,132.7c0,13.1-2.4,26.6-7.2,40.6c-6.3,18.3-14.5,27.5-24.9,27.5c-9.7,0-17.8-6-24.2-18.1
			c-4.4,12.8-11.3,19.2-20.7,19.2c-12.1,0-20.9-8.3-26.4-24.9c-3.8-11.3-5.7-24.6-5.7-39.9c0-9.6,0.4-17.4,1.1-23.3
			c2-3.2,4.7-4.8,8.1-4.8c2.9,0,5.9,0.9,8.8,2.8c3,1.9,4.5,4.1,4.5,6.8c0,1.9-0.4,4.7-1.3,8.4c-0.9,3.7-1.3,6.5-1.3,8.4
			c0,32,3.4,48,10.1,48c7,0,11.6-8.9,13.7-26.6c0.7-6.7,1.1-18.4,1.1-35.1c0-5.5,3.2-8.3,9.6-8.3c7.1,0,10.7,4,10.7,12
			c0,0.7-0.1,1.7-0.2,3.1c-0.1,1.3-0.2,2.3-0.2,2.8v24.6c0,18.3,3.3,27.5,10,27.5c5.7,0,10-6.7,12.9-20.1c2.2-9.3,3.3-18.4,3.3-27.3
			c0-7.6-0.4-12-1.1-13.3c-0.1-0.3-0.9-1.2-2.4-2.6c-0.9-1.2-1.3-2.3-1.3-3.3c0-2.6,1.2-5,3.5-7.1c2.3-2.1,4.8-3.2,7.4-3.2
			c3.9,0,7.1,3.5,9.4,10.5C507.5,122.4,508.4,127.6,508.4,132.7z"/>
	</g>
</g>
</svg>
